<?xml version="1.0" encoding="utf-8"?>
<!-- Generator: Adobe Illustrator 21.0.2, SVG Export Plug-In . SVG Version: 6.00 Build 0)  -->
<svg version="1.1" id="Capa_1" class="social-svg" xmlns="http://www.w3.org/2000/svg" xmlns:xlink="http://www.w3.org/1999/xlink" x="0px" y="0px"
	 viewBox="0 0 45 45" style="enable-background:new 0 0 45 45;" xml:space="preserve">
<style type="text/css">
	.st0{fill:#4D4D4D;}
	.st1{fill-rule:evenodd;clip-rule:evenodd;fill:#4D4D4D;}
</style>
<path id="facebook" class="st0" d="M22.5,0C10.1,0,0,10.1,0,22.5C0,34.9,10.1,45,22.5,45S45,34.9,45,22.5C45,10.1,34.9,0,22.5,0z
	 M28.5,22.4h-3.9c0,6.2,0,13.9,0,13.9h-5.8c0,0,0-7.6,0-13.9H16v-4.9h2.7v-3.2c0-2.3,1.1-5.8,5.8-5.8l4.3,0v4.8c0,0-2.6,0-3.1,0
	c-0.5,0-1.2,0.3-1.2,1.3v2.9H29L28.5,22.4z"/>
</svg>
