<?xml version="1.0" encoding="utf-8"?>
<!-- Generator: Adobe Illustrator 21.0.2, SVG Export Plug-In . SVG Version: 6.00 Build 0)  -->
<svg version="1.1" id="Capa_1" xmlns="http://www.w3.org/2000/svg" xmlns:xlink="http://www.w3.org/1999/xlink" x="0px" y="0px"
	 viewBox="0 0 45 43.9" style="enable-background:new 0 0 45 43.9;" xml:space="preserve">
<style type="text/css">
	.st0{fill:#4D4D4D;}
	.st1{fill-rule:evenodd;clip-rule:evenodd;fill:#4D4D4D;}
</style>
<g id="github">
	<path class="st1" d="M22.5,0C10.1,0,0,10.1,0,22.5c0,9.9,6.4,18.4,15.4,21.4c1.1,0.2,1.5-0.5,1.5-1.1c0-0.5,0-2.3,0-4.2
		c-6.3,1.4-7.6-2.7-7.6-2.7c-1-2.6-2.5-3.3-2.5-3.3c-2-1.4,0.2-1.4,0.2-1.4c2.3,0.2,3.4,2.3,3.4,2.3c2,3.4,5.3,2.4,6.5,1.9
		c0.2-1.5,0.8-2.4,1.4-3c-5-0.6-10.3-2.5-10.3-11.1c0-2.5,0.9-4.5,2.3-6c-0.2-0.6-1-2.9,0.2-6c0,0,1.9-0.6,6.2,2.3
		c1.8-0.5,3.7-0.7,5.6-0.8c1.9,0,3.8,0.3,5.6,0.8c4.3-2.9,6.2-2.3,6.2-2.3c1.2,3.1,0.5,5.4,0.2,6c1.4,1.6,2.3,3.6,2.3,6
		c0,8.6-5.3,10.5-10.3,11.1c0.8,0.7,1.5,2.1,1.5,4.2c0,3,0,5.4,0,6.2c0,0.6,0.4,1.3,1.5,1.1c8.9-3,15.4-11.4,15.4-21.3
		C45,10.1,34.9,0,22.5,0z"/>
	<path class="st0" d="M8.5,32.3c0,0.1-0.2,0.1-0.4,0.1C8,32.3,7.9,32.1,7.9,32c0-0.1,0.2-0.1,0.4-0.1C8.5,32,8.6,32.2,8.5,32.3
		L8.5,32.3z M8.2,32.1"/>
	<path class="st0" d="M9.4,33.3c-0.1,0.1-0.3,0.1-0.5-0.1c-0.1-0.2-0.2-0.4-0.1-0.5c0.1-0.1,0.3-0.1,0.5,0.1
		C9.5,33,9.5,33.2,9.4,33.3L9.4,33.3z M9.2,33.1"/>
	<path class="st0" d="M10.3,34.6c-0.1,0.1-0.4,0-0.5-0.2c-0.1-0.2-0.1-0.4,0-0.5c0.1-0.1,0.4,0,0.5,0.2
		C10.5,34.3,10.5,34.5,10.3,34.6L10.3,34.6z M10.3,34.6"/>
	<path class="st0" d="M11.5,35.9C11.4,36,11.1,36,11,35.8c-0.2-0.2-0.3-0.4-0.1-0.6c0.1-0.1,0.4-0.1,0.6,0.1
		C11.6,35.5,11.7,35.7,11.5,35.9L11.5,35.9z M11.5,35.9"/>
	<path class="st0" d="M13.2,36.6c-0.1,0.2-0.3,0.3-0.6,0.2c-0.3-0.1-0.4-0.3-0.4-0.5c0.1-0.2,0.3-0.3,0.6-0.2
		C13.1,36.2,13.3,36.4,13.2,36.6L13.2,36.6z M13.2,36.6"/>
	<path class="st0" d="M15.1,36.7c0,0.2-0.2,0.3-0.5,0.3c-0.3,0-0.5-0.1-0.5-0.3c0-0.2,0.2-0.3,0.5-0.3
		C14.8,36.4,15.1,36.5,15.1,36.7L15.1,36.7z M15.1,36.7"/>
	<path class="st0" d="M16.8,36.4c0,0.2-0.2,0.4-0.4,0.4c-0.3,0-0.5-0.1-0.5-0.2c0-0.2,0.2-0.4,0.4-0.4
		C16.5,36.1,16.7,36.3,16.8,36.4L16.8,36.4z M16.8,36.4"/>
</g>
</svg>
