<?xml version="1.0" encoding="utf-8"?>
<!-- Generator: Adobe Illustrator 21.0.2, SVG Export Plug-In . SVG Version: 6.00 Build 0)  -->
<svg version="1.1" id="Capa_1" xmlns="http://www.w3.org/2000/svg" xmlns:xlink="http://www.w3.org/1999/xlink" x="0px" y="0px"
	 viewBox="0 0 44.8 44.8" style="enable-background:new 0 0 44.8 44.8;" xml:space="preserve">
<style type="text/css">
	.st0{fill:#4D4D4D;}
	.st1{fill-rule:evenodd;clip-rule:evenodd;fill:#4D4D4D;}
</style>
<g id="linkedin">
	<path class="st0" d="M22.4,0C10,0,0,10,0,22.4c0,12.4,10,22.4,22.4,22.4c12.4,0,22.4-10,22.4-22.4C44.8,10,34.8,0,22.4,0z
		 M34.9,33.3c0,1-0.8,1.8-1.8,1.8H11.7c-1,0-1.8-0.8-1.8-1.8V11.7c0-1,0.8-1.8,1.8-1.8H33c1,0,1.8,0.8,1.8,1.8V33.3z"/>
	<path class="st0" d="M26.7,19.4c-2,0-2.9,1.1-3.4,1.9v0h0c0,0,0,0,0,0v-1.6h-3.8c0,1.1,0,11.4,0,11.4h3.8v-6.3c0-0.3,0-0.7,0.1-0.9
		c0.3-0.7,0.9-1.4,1.9-1.4c1.4,0,1.9,1,1.9,2.6V31h3.8v-6.5C31.1,21,29.2,19.4,26.7,19.4z"/>
	<path class="st0" d="M15.6,14.1c-1.3,0-2.1,0.8-2.1,2c0,1.1,0.8,2,2.1,2h0c1.3,0,2.1-0.9,2.1-2C17.7,15,16.9,14.1,15.6,14.1z"/>
	<rect x="13.7" y="19.6" class="st0" width="3.8" height="11.4"/>
</g>
</svg>
