<?xml version="1.0" encoding="utf-8"?>
<!-- Generator: Adobe Illustrator 21.0.2, SVG Export Plug-In . SVG Version: 6.00 Build 0)  -->
<svg version="1.1" id="Capa_1" xmlns="http://www.w3.org/2000/svg" xmlns:xlink="http://www.w3.org/1999/xlink" x="0px" y="0px"
	 viewBox="0 0 44.8 44.8" style="enable-background:new 0 0 44.8 44.8;" xml:space="preserve">
<style type="text/css">
	.st0{fill:#4D4D4D;}
	.st1{fill-rule:evenodd;clip-rule:evenodd;fill:#4D4D4D;}
</style>
<path id="twitter" class="st0" d="M22.4,0C10,0,0,10,0,22.4c0,12.4,10,22.4,22.4,22.4c12.4,0,22.4-10,22.4-22.4
	C44.8,10,34.8,0,22.4,0z M33.7,17.9c0,0.2,0,0.5,0,0.7c0,7.5-5.7,16.1-16.1,16.1c-3.2,0-6.2-0.9-8.7-2.5c0.4,0.1,0.9,0.1,1.3,0.1
	c2.6,0,5.1-0.9,7-2.4c-2.5,0-4.6-1.7-5.3-3.9c0.3,0.1,0.7,0.1,1.1,0.1c0.5,0,1-0.1,1.5-0.2c-2.6-0.5-4.5-2.8-4.5-5.5c0,0,0,0,0-0.1
	c0.8,0.4,1.6,0.7,2.6,0.7c-1.5-1-2.5-2.7-2.5-4.7c0-1,0.3-2,0.8-2.8c2.8,3.4,6.9,5.7,11.6,5.9c-0.1-0.4-0.1-0.8-0.1-1.3
	c0-3.1,2.5-5.6,5.6-5.6c1.6,0,3.1,0.7,4.1,1.8c1.3-0.3,2.5-0.7,3.6-1.4c-0.4,1.3-1.3,2.4-2.5,3.1c1.1-0.1,2.2-0.4,3.2-0.9
	C35.7,16.1,34.8,17.1,33.7,17.9z"/>
</svg>
